<svg width="1024" height="1024" viewBox="0 0 1024 1024" fill="none" xmlns="http://www.w3.org/2000/svg">
<path d="M1024 512C1024 794.77 794.77 1024 512 1024C229.23 1024 0 794.77 0 512C0 229.23 229.23 0 512 0C794.77 0 1024 229.23 1024 512Z" fill="#B9D5FF"/>
<path d="M512 128L844.554 320V704L512 896L179.446 704V320L512 128Z" fill="#1E1E1E"/>
<path d="M704 512C704 618.039 618.039 704 512 704C405.961 704 320 618.039 320 512C320 405.961 405.961 320 512 320C618.039 320 704 405.961 704 512Z" fill="#B9D5FF"/>
</svg>
